<?xml version="1.0" encoding="utf-8"?><svg xmlns="http://www.w3.org/2000/svg" xmlns:xlink="http://www.w3.org/1999/xlink"><symbol viewBox="0 0 64 40.1" enable-background="new 0 0 64 40.1" id="icon-behance"><path d="M18.6 0c1.9 0 3.6.2 5.1.5 1.5.3 2.9.9 4 1.6 1.1.7 2 1.7 2.6 3 .6 1.2.9 2.8.9 4.6 0 2-.4 3.6-1.3 5-.9 1.3-2.2 2.4-4 3.2 2.4.7 4.2 1.9 5.4 3.7 1.2 1.8 1.8 3.9 1.8 6.3 0 2-.4 3.7-1.1 5.2-.8 1.5-1.8 2.6-3.1 3.6-1.3.9-2.8 1.6-4.5 2-1.7.4-3.4.7-5.1.7H0V0h18.6zm-1.2 15.9c1.5 0 2.8-.4 3.8-1.1 1-.7 1.5-1.9 1.5-3.6 0-.9-.2-1.7-.5-2.3-.3-.6-.8-1-1.3-1.4-.5-.2-1.2-.5-1.9-.6-.7-.1-1.5-.2-2.2-.2H8.7v9.2h8.7zm.5 16.8c.9 0 1.7-.1 2.4-.2.8-.2 1.5-.4 2-.8.6-.4 1.1-.9 1.4-1.6.4-.7.5-1.5.5-2.6 0-2-.6-3.5-1.7-4.3-1.1-.9-2.7-1.3-4.5-1.3H8.7v10.8h9.2zM45.3 32.5c1.2 1.1 2.9 1.7 5.1 1.7 1.6 0 2.9-.4 4.1-1.2 1.1-.8 1.8-1.6 2.1-2.5h6.9c-1.1 3.4-2.8 5.9-5.1 7.4s-5 2.2-8.3 2.2c-2.2 0-4.3-.4-6.1-1.1-1.8-.7-3.3-1.7-4.6-3.1-1.2-1.3-2.2-2.9-2.9-4.8-.7-1.8-1-3.9-1-6.1 0-2.1.4-4.1 1.1-6 .7-1.8 1.7-3.4 3-4.8 1.3-1.3 2.8-2.4 4.6-3.2 1.8-.8 3.8-1.2 5.9-1.2 2.4 0 4.5.5 6.3 1.4 1.8.9 3.3 2.2 4.4 3.8 1.2 1.6 2 3.4 2.5 5.4.5 2 .7 4.1.5 6.3H43.4c0 2.6.7 4.7 1.9 5.8zm9-14.9c-.9-1-2.5-1.6-4.4-1.6-1.3 0-2.3.2-3.1.6-.8.4-1.5 1-2 1.6-.5.6-.8 1.3-1 2-.2.7-.3 1.3-.4 1.9h12.7c-.2-2-.9-3.5-1.8-4.5zM41.8 2.6h16v3.9h-16z"/></symbol><symbol viewBox="0 0 64 64" enable-background="new 0 0 64 64" id="icon-email"><path d="M63 .4c.8.6 1.1 1.4 1 2.3l-9.1 54.9c-.1.7-.5 1.2-1.2 1.6-.3.2-.7.3-1.2.3-.3 0-.5-.1-.8-.2l-16.2-6.6-8.6 10.5c-.4.6-1 .8-1.7.8-.3 0-.6 0-.8-.1-.5-.2-.8-.5-1.1-.8s-.4-.8-.5-1.3V49.3l30.9-37.8-38.1 33-14.2-5.8c-.9-.3-1.3-.9-1.4-1.9-.1-1 .3-1.7 1.1-2.1L60.5.3c.4-.2.8-.3 1.2-.3.5 0 .9.1 1.3.4z"/></symbol><symbol viewBox="0 0 64 62.4" enable-background="new 0 0 64 62.4" id="icon-github"><path d="M32 0C14.3 0 0 14.3 0 32c0 14.1 9.2 26.1 21.9 30.4 1.6.3 2.2-.7 2.2-1.5v-5.4c-8.9 1.9-10.8-4.3-10.8-4.3-1.5-3.7-3.6-4.7-3.6-4.7-2.9-2 .2-1.9.2-1.9 3.2.2 4.9 3.3 4.9 3.3 2.9 4.9 7.5 3.5 9.3 2.7.3-2.1 1.1-3.5 2-4.3-7.1-.8-14.6-3.6-14.6-15.8 0-3.5 1.2-6.3 3.3-8.6-.3-.8-1.4-4.1.3-8.5 0 0 2.7-.9 8.8 3.3 2.6-.7 5.3-1.1 8-1.1s5.5.4 8 1.1c6.1-4.1 8.8-3.3 8.8-3.3 1.7 4.4.6 7.7.3 8.5 2.1 2.2 3.3 5.1 3.3 8.6 0 12.3-7.5 15-14.6 15.8 1.1 1 2.2 2.9 2.2 5.9V61c0 .9.6 1.9 2.2 1.5C54.8 58.1 64 46.1 64 32 64 14.3 49.7 0 32 0z"/></symbol><symbol viewBox="0 0 64 64" enable-background="new 0 0 64 64" id="icon-linkedin"><path d="M59.3 0H4.7C2.1 0 0 2.1 0 4.6v54.8C0 61.9 2.1 64 4.7 64h54.5c2.6 0 4.7-2.1 4.7-4.6V4.6c.1-2.5-2-4.6-4.6-4.6zM19 54.5H9.5V24H19v30.5zm-4.8-34.7c-3 0-5.5-2.5-5.5-5.5s2.5-5.5 5.5-5.5 5.5 2.5 5.5 5.5c0 3.1-2.4 5.5-5.5 5.5zm40.3 34.7H45V39.7c0-3.5-.1-8.1-4.9-8.1-4.9 0-5.7 3.9-5.7 7.8v15.1h-9.5V24H34v4.2h.1c1.3-2.4 4.4-4.9 9-4.9 9.6 0 11.4 6.3 11.4 14.5v16.7z"/></symbol><symbol viewBox="0 0 64 52" enable-background="new 0 0 64 52" id="icon-twitter"><path d="M64 6.2c-2.4 1-4.9 1.8-7.5 2.1C59.2 6.6 61.3 4 62.2 1c-2.5 1.5-5.3 2.6-8.3 3.2C51.5 1.6 48.1 0 44.3 0 37 0 31.2 5.9 31.2 13.1c0 1 .1 2 .3 3-10.9-.5-20.6-5.8-27-13.7C3.3 4.3 2.7 6.6 2.7 9c0 4.6 2.3 8.6 5.8 10.9-2.2-.1-4.2-.7-5.9-1.6v.2c0 6.4 4.5 11.7 10.5 12.9-1.1.3-2.3.5-3.5.5-.8 0-1.7-.1-2.5-.2 1.7 5.2 6.5 9 12.3 9.1-4.5 3.5-10.2 5.6-16.3 5.6-1.1 0-2.1-.1-3.1-.2C5.8 49.8 12.7 52 20.1 52c24.2 0 37.4-20 37.4-37.4v-1.7c2.5-1.8 4.7-4.1 6.5-6.7z"/></symbol><symbol viewBox="0 0 320 184.9" enable-background="new 0 0 320 184.9" id="showcase-macbook"><path opacity=".25" fill="#404041" d="M275 180.2V0H40.6c-3.1 0-6.2 1.2-8.5 3.3L17.9 18.1c-2.5 2.4-3.9 5.6-3.9 9.1v153h261z"/><path fill="#58595B" d="M32.6 6.2h254.8v161.6H32.6z"/><path fill="#404041" d="M290.5 167.1V9.9c0-5.5-4.5-9.9-9.9-9.9H39.4c-5.4 0-9.9 4.5-9.9 9.9V167c0 2.7 1.1 5.1 2.8 6.9h255.3c1.8-1.7 2.9-4.1 2.9-6.8zm-9.3-4.3H37.3V10.1h243.9v152.7z"/><path fill="#929497" d="M161.6 5.7c0-.9-.7-1.6-1.5-1.6-.9 0-1.6.7-1.6 1.6 0 .9.7 1.6 1.6 1.6.8-.1 1.5-.8 1.5-1.6z"/><path fill="#D0D2D3" d="M287.9 174H0v6.2h320V174z"/><path fill="#E6E7E8" d="M0 180.2s1.9 4.7 18.5 4.7h283c16.6 0 18.5-4.7 18.5-4.7"/><path fill="#BBBDBF" d="M160.4 174H136.8s.7 3.1 4.4 3.1H179c3.7 0 4.4-3.1 4.4-3.1h-23z"/></symbol></svg>