<?xml version="1.0" encoding="utf-8"?>
<!-- Generator: Adobe Illustrator 18.1.1, SVG Export Plug-In . SVG Version: 6.00 Build 0)  -->
<svg version="1.1" id="Layer_1" xmlns="http://www.w3.org/2000/svg" xmlns:xlink="http://www.w3.org/1999/xlink" x="0px" y="0px"
	 viewBox="0 0 64 40.1" enable-background="new 0 0 64 40.1" xml:space="preserve">
<g>
	<path d="M18.6,0c1.9,0,3.6,0.2,5.1,0.5c1.5,0.3,2.9,0.9,4,1.6c1.1,0.7,2,1.7,2.6,3c0.6,1.2,0.9,2.8,0.9,4.6c0,2-0.4,3.6-1.3,5
		c-0.9,1.3-2.2,2.4-4,3.2c2.4,0.7,4.2,1.9,5.4,3.7c1.2,1.8,1.8,3.9,1.8,6.3c0,2-0.4,3.7-1.1,5.2c-0.8,1.5-1.8,2.6-3.1,3.6
		c-1.3,0.9-2.8,1.6-4.5,2c-1.7,0.4-3.4,0.7-5.1,0.7H0V0H18.6z M17.4,15.9c1.5,0,2.8-0.4,3.8-1.1c1-0.7,1.5-1.9,1.5-3.6
		c0-0.9-0.2-1.7-0.5-2.3c-0.3-0.6-0.8-1-1.3-1.4C20.4,7.3,19.7,7,19,6.9c-0.7-0.1-1.5-0.2-2.2-0.2H8.7v9.2H17.4z M17.9,32.7
		c0.9,0,1.7-0.1,2.4-0.2c0.8-0.2,1.5-0.4,2-0.8c0.6-0.4,1.1-0.9,1.4-1.6c0.4-0.7,0.5-1.5,0.5-2.6c0-2-0.6-3.5-1.7-4.3
		c-1.1-0.9-2.7-1.3-4.5-1.3H8.7v10.8H17.9z"/>
	<path d="M45.3,32.5c1.2,1.1,2.9,1.7,5.1,1.7c1.6,0,2.9-0.4,4.1-1.2c1.1-0.8,1.8-1.6,2.1-2.5h6.9c-1.1,3.4-2.8,5.9-5.1,7.4
		c-2.3,1.5-5,2.2-8.3,2.2c-2.2,0-4.3-0.4-6.1-1.1c-1.8-0.7-3.3-1.7-4.6-3.1c-1.2-1.3-2.2-2.9-2.9-4.8c-0.7-1.8-1-3.9-1-6.1
		c0-2.1,0.4-4.1,1.1-6c0.7-1.8,1.7-3.4,3-4.8c1.3-1.3,2.8-2.4,4.6-3.2c1.8-0.8,3.8-1.2,5.9-1.2c2.4,0,4.5,0.5,6.3,1.4
		c1.8,0.9,3.3,2.2,4.4,3.8c1.2,1.6,2,3.4,2.5,5.4c0.5,2,0.7,4.1,0.5,6.3H43.4C43.4,29.3,44.1,31.4,45.3,32.5z M54.3,17.6
		c-0.9-1-2.5-1.6-4.4-1.6c-1.3,0-2.3,0.2-3.1,0.6c-0.8,0.4-1.5,1-2,1.6c-0.5,0.6-0.8,1.3-1,2c-0.2,0.7-0.3,1.3-0.4,1.9h12.7
		C55.9,20.1,55.2,18.6,54.3,17.6z"/>
	<rect x="41.8" y="2.6" width="16" height="3.9"/>
</g>
</svg>
