<?xml version="1.0" encoding="utf-8"?>
<!-- Generator: Adobe Illustrator 18.1.1, SVG Export Plug-In . SVG Version: 6.00 Build 0)  -->
<svg version="1.1" id="Layer_1" xmlns="http://www.w3.org/2000/svg" xmlns:xlink="http://www.w3.org/1999/xlink" x="0px" y="0px"
	 viewBox="0 0 64 52" enable-background="new 0 0 64 52" xml:space="preserve">
<path fill="#221F1F" d="M64,6.2c-2.4,1-4.9,1.8-7.5,2.1C59.2,6.6,61.3,4,62.2,1c-2.5,1.5-5.3,2.6-8.3,3.2C51.5,1.6,48.1,0,44.3,0
	c-7.3,0-13.1,5.9-13.1,13.1c0,1,0.1,2,0.3,3C20.6,15.6,10.9,10.3,4.5,2.4C3.3,4.3,2.7,6.6,2.7,9c0,4.6,2.3,8.6,5.8,10.9
	c-2.2-0.1-4.2-0.7-5.9-1.6c0,0.1,0,0.1,0,0.2c0,6.4,4.5,11.7,10.5,12.9c-1.1,0.3-2.3,0.5-3.5,0.5c-0.8,0-1.7-0.1-2.5-0.2
	c1.7,5.2,6.5,9,12.3,9.1c-4.5,3.5-10.2,5.6-16.3,5.6c-1.1,0-2.1-0.1-3.1-0.2C5.8,49.8,12.7,52,20.1,52c24.2,0,37.4-20,37.4-37.4
	c0-0.6,0-1.1,0-1.7C60,11.1,62.2,8.8,64,6.2z"/>
</svg>
