<?xml version="1.0" encoding="utf-8"?>
<!-- Generator: Adobe Illustrator 18.1.1, SVG Export Plug-In . SVG Version: 6.00 Build 0)  -->
<svg version="1.1" id="Layer_1" xmlns="http://www.w3.org/2000/svg" xmlns:xlink="http://www.w3.org/1999/xlink" x="0px" y="0px"
	 viewBox="0 0 64 64" enable-background="new 0 0 64 64" xml:space="preserve">
<g>
	<path d="M63,0.4c0.8,0.6,1.1,1.4,1,2.3l-9.1,54.9c-0.1,0.7-0.5,1.2-1.2,1.6c-0.3,0.2-0.7,0.3-1.2,0.3c-0.3,0-0.5-0.1-0.8-0.2
		l-16.2-6.6l-8.6,10.5c-0.4,0.6-1,0.8-1.7,0.8c-0.3,0-0.6,0-0.8-0.1c-0.5-0.2-0.8-0.5-1.1-0.8s-0.4-0.8-0.5-1.3V49.3l30.9-37.8
		l-38.1,33L1.4,38.7c-0.9-0.3-1.3-0.9-1.4-1.9c-0.1-1,0.3-1.7,1.1-2.1L60.5,0.3C60.9,0.1,61.3,0,61.7,0C62.2,0,62.6,0.1,63,0.4z"/>
</g>
</svg>
